<?xml version="1.0" ?><!DOCTYPE svg  PUBLIC '-//W3C//DTD SVG 1.1//EN'  'http://www.w3.org/Graphics/SVG/1.1/DTD/svg11.dtd'>
<svg id="Layer_1" style="enable-background:new 0 0 76 76;" version="1.1" viewBox="0 0 76 76" xml:space="preserve" xmlns="http://www.w3.org/2000/svg" xmlns:xlink="http://www.w3.org/1999/xlink">
	<g>
		<path fill="#fff" class="st0" d="M65.5,53.4l-2.5,8.1c-1.3,4.3-5.4,7.3-9.9,7.3H33.7c-2.9,0-5.2-2.3-5.2-5.2V41.7h14c3.7,0,6.7,3,6.7,6.7v1.7   c0,0.5,0.4,0.9,0.9,0.9H53c0.5,0,0.9-0.4,0.9-0.9V24.9c0-0.5-0.4-0.9-0.9-0.9h-2.9c-0.5,0-0.9,0.4-0.9,0.9v2.7c0,3.7-3,6.7-6.7,6.7   h-14V12.4c0-2.9,2.3-5.2,5.2-5.2h18.4c4.7,0,8.6,3.8,8.6,8.6V21c0,0.5,0.4,0.9,0.9,0.9h3.4c0.5,0,0.9-0.4,0.9-0.8l1.4-17.8   C67.4,2.1,66.4,1,65.2,1H6.8C6,1,5.4,1.7,5.4,2.5v3.3c0,0.8,0.7,1.5,1.5,1.5h3.7c2.9,0,5.2,2.3,5.2,5.2v51.1c0,2.9-2.3,5.2-5.2,5.2   H6.8c-0.8,0-1.5,0.7-1.5,1.5v3.3C5.4,74.3,6,75,6.8,75h58.8c1.1,0,1.9-0.8,2.1-1.8l2.9-19.4c0.1-0.6-0.3-1.1-0.9-1.1h-3.4   C65.9,52.7,65.6,53,65.5,53.4z"/>
	</g>
</svg>